<svg height="462pt" viewBox="-28 0 461 462" width="462pt" xmlns="http://www.w3.org/2000/svg"><path d="m314.15625 3.101562c-1.875-1.960937-4.464844-3.0781245-7.175781-3.101562h-176c-22.054688 0-40.480469 18.078125-40.480469 40.132812v29.867188h-49.519531c-22.054688 0-40.480469 18.347656-40.480469 40.398438v311.46875c0 22.054687 18.425781 40.132812 40.480469 40.132812h233.039062c22.054688 0 40.480469-18.078125 40.480469-40.132812v-29.867188h49.519531c22.054688 0 40.480469-18.347656 40.480469-40.398438v-251.800781c-.089844-2.640625-1.1875-5.144531-3.066406-7zm2.34375 31.691407 53.875 55.207031h-47.09375c-3.609375-.0625-6.566406-2.894531-6.78125-6.5zm-22 387.074219c0 11.027343-9.453125 20.132812-20.480469 20.132812h-233.039062c-11.027344 0-20.480469-9.105469-20.480469-20.132812v-311.46875c.207031-11.210938 9.269531-20.234376 20.480469-20.398438h49.519531v261.601562c0 22.054688 18.425781 40.398438 40.480469 40.398438h163.519531zm69.519531-49.867188h-233.039062c-11.210938-.164062-20.273438-9.1875-20.480469-20.398438v-311.46875c0-11.027343 9.453125-20.132812 20.480469-20.132812h165.519531v63.5c0 14.5 12.28125 26.5 26.78125 26.5h61.21875v241.601562c-.207031 11.210938-9.269531 20.234376-20.480469 20.398438zm0 0"/><path d="m338.800781 311h-187.621093c-5.523438 0-10 4.476562-10 10s4.476562 10 10 10h187.621093c5.523438 0 10-4.476562 10-10s-4.476562-10-10-10zm0 0"/><path d="m151.179688 287h112.320312c5.523438 0 10-4.476562 10-10s-4.476562-10-10-10h-112.320312c-5.523438 0-10 4.476562-10 10s4.476562 10 10 10zm0 0"/><path d="m247.5 213.277344c-9.675781-.011719-17.515625-7.851563-17.523438-17.523438 0-5.523437-4.480468-10-10-10-5.523437 0-10 4.476563-10 10 .019532 16.480469 10.773438 31.023438 26.523438 35.875v8.371094c0 5.523438 4.476562 10 10 10s10-4.476562 10-10v-7.820312c18.417969-4.550782 30.542969-22.128907 28.253906-40.960938-2.292968-18.835938-18.28125-32.992188-37.253906-32.992188-9.679688 0-17.523438-7.84375-17.523438-17.523437-.003906-9.675781 7.84375-17.523437 17.519532-17.523437 9.679687-.003907 17.527344 7.84375 17.527344 17.519531 0 5.523437 4.480468 10 10 10 5.523437 0 10-4.476563 10-10-.023438-17.246094-11.785157-32.265625-28.523438-36.421875v-9.277344c0-5.523438-4.476562-10-10-10s-10 4.476562-10 10v9.824219c-17.757812 5.449219-28.859375 23.070312-26.105469 41.4375 2.753907 18.371093 18.53125 31.960937 37.105469 31.964843 9.679688-.074218 17.582031 7.714844 17.65625 17.390626.074219 9.679687-7.710938 17.585937-17.390625 17.65625-.089844 0-.175781 0-.265625 0zm0 0"/></svg>